<svg width="24" height="28" viewBox="0 0 24 28" fill="none" xmlns="http://www.w3.org/2000/svg"> <ellipse cx="5.14035" cy="4.49854" rx="2.85714" ry="2.85792" fill="white"/> <path fill-rule="evenodd" clip-rule="evenodd" d="M6.27605 0.586028L12.4654 1.85053C12.9935 1.95843 13.4806 2.26754 13.8005 2.75318L17.4248 8.2394C16.6426 7.93203 15.7896 7.77835 14.8656 7.77835C13.5822 7.77835 12.4272 8.07788 11.4005 8.67695C10.3804 9.27601 9.57414 10.1417 8.98181 11.274C8.39607 12.3997 8.1032 13.7558 8.1032 15.3424C8.1032 16.9223 8.39607 18.2752 8.98181 19.4009C9.57414 20.5266 10.3804 21.389 11.4005 21.9881C12.4272 22.5871 13.5822 22.8866 14.8656 22.8866C15.8037 22.8866 16.6686 22.7282 17.4605 22.4114L18.4291 23.6397L13.117 27.1508C12.1468 27.792 10.8409 27.5252 10.1998 26.5548L6.53917 21.0135V7.97561H3.8737V16.9787L0.349457 11.6438C0.0282893 11.159 -0.0649887 10.5896 0.0428869 10.0613L1.30705 3.87034C1.77248 1.59103 3.99735 0.12048 6.27605 0.586028ZM21.6181 15.3424C21.6181 15.0707 21.6094 14.8057 21.592 14.5476L23.6509 17.6641C24.292 18.6346 24.0252 19.9409 23.055 20.5821L20.1371 22.5108L19.2221 21.3382C19.8227 20.8151 20.3252 20.1694 20.7296 19.4009C21.3219 18.2752 21.6181 16.9223 21.6181 15.3424ZM18.4195 18.1665C18.2039 18.6386 17.9379 19.0403 17.6217 19.3715L16.6548 18.1242C16.4727 17.8893 16.1922 17.7518 15.8949 17.7518C15.0999 17.7518 14.6483 18.6617 15.1292 19.2949L15.9401 20.3627C15.6028 20.4522 15.2446 20.497 14.8656 20.497C14.0692 20.497 13.3617 20.2995 12.7431 19.9045C12.131 19.5095 11.6506 18.9302 11.3018 18.1665C10.9529 17.3963 10.7785 16.4549 10.7785 15.3424C10.7785 14.2232 10.9529 13.2786 11.3018 12.5083C11.6506 11.7381 12.131 11.1555 12.7431 10.7605C13.3617 10.3655 14.0692 10.168 14.8656 10.168C15.6619 10.168 16.3661 10.3655 16.9782 10.7605C17.5903 11.1555 18.0707 11.7381 18.4195 12.5083C18.7683 13.2786 18.9427 14.2232 18.9427 15.3424C18.9427 16.4549 18.7683 17.3963 18.4195 18.1665ZM5.01189 6.777C6.15175 7.00988 7.26357 6.27502 7.49639 5.13485C7.72921 3.99467 6.99453 2.88257 5.85466 2.64969C4.71479 2.41681 3.60298 3.15167 3.37016 4.29184C3.13735 5.43202 3.87202 6.54412 5.01189 6.777Z" fill="url(#paint0_radial_467_8452)"/> <path fill-rule="evenodd" clip-rule="evenodd" d="M6.53851 21.012L3.87305 16.9772V7.97461H6.53851V21.012ZM20.1351 22.5081L18.4271 23.637L17.4599 22.4104C16.668 22.7272 15.803 22.8856 14.8649 22.8856C13.5815 22.8856 12.4265 22.5861 11.3998 21.987C10.3797 21.388 9.57348 20.5256 8.98115 19.3999C8.39541 18.2742 8.10254 16.9213 8.10254 15.3414C8.10254 13.7548 8.39541 12.3987 8.98115 11.273C9.57348 10.1407 10.3797 9.27501 11.3998 8.67594C12.4265 8.07688 13.5815 7.77734 14.8649 7.77734C15.7891 7.77734 16.6423 7.93108 17.4245 8.23855L21.5913 14.546C21.6087 14.8044 21.6174 15.0695 21.6174 15.3414C21.6174 16.9213 21.3213 18.2742 20.7289 19.3999C20.3246 20.1684 19.8221 20.8141 19.2214 21.3372L20.1351 22.5081ZM15.1285 19.2938C14.6477 18.6607 15.0992 17.7508 15.8942 17.7508C16.1915 17.7508 16.4721 17.8883 16.6542 18.1232L17.621 19.3705C17.9373 19.0393 18.2032 18.6376 18.4189 18.1655C18.7677 17.3953 18.9421 16.4539 18.9421 15.3414C18.9421 14.2222 18.7677 13.2776 18.4189 12.5073C18.0701 11.7371 17.5896 11.1545 16.9775 10.7595C16.3655 10.3645 15.6613 10.167 14.8649 10.167C14.0686 10.167 13.3611 10.3645 12.7424 10.7595C12.1304 11.1545 11.6499 11.7371 11.3011 12.5073C10.9523 13.2776 10.7779 14.2222 10.7779 15.3414C10.7779 16.4539 10.9523 17.3953 11.3011 18.1655C11.6499 18.9292 12.1304 19.5085 12.7424 19.9035C13.3611 20.2985 14.0686 20.496 14.8649 20.496C15.244 20.496 15.6022 20.4512 15.9395 20.3617L15.1285 19.2938Z" fill="white"/> <defs> <radialGradient id="paint0_radial_467_8452" cx="0" cy="0" r="1" gradientUnits="userSpaceOnUse" gradientTransform="translate(2.14285 -6.148) rotate(73.3733) scale(34.4493 74.7969)"> <stop stop-color="#C565FE"/> <stop offset="1" stop-color="#8B6CF6"/> </radialGradient> </defs> </svg>